<mxfile host="app.diagrams.net" modified="2023-03-23T14:56:01.597Z" agent="5.0 (Windows)" etag="wH8UFJWGoklRu3nsoWa9" version="21.0.10" type="github">
  <diagram id="C5RBs43oDa-KdzZeNtuy" name="Page-1">
    <mxGraphModel dx="2261" dy="782" grid="1" gridSize="10" guides="1" tooltips="1" connect="1" arrows="1" fold="1" page="1" pageScale="1" pageWidth="827" pageHeight="1169" math="0" shadow="0">
      <root>
        <mxCell id="WIyWlLk6GJQsqaUBKTNV-0" />
        <mxCell id="WIyWlLk6GJQsqaUBKTNV-1" parent="WIyWlLk6GJQsqaUBKTNV-0" />
        <mxCell id="eb4Wm__o-diYVPhlH8vS-0" style="edgeStyle=orthogonalEdgeStyle;rounded=0;orthogonalLoop=1;jettySize=auto;html=1;exitX=0.5;exitY=1;exitDx=0;exitDy=0;" edge="1" source="eb4Wm__o-diYVPhlH8vS-1" parent="WIyWlLk6GJQsqaUBKTNV-1">
          <mxGeometry relative="1" as="geometry">
            <mxPoint x="414" y="200" as="targetPoint" />
            <Array as="points">
              <mxPoint x="414" y="200" />
            </Array>
          </mxGeometry>
        </mxCell>
        <mxCell id="eb4Wm__o-diYVPhlH8vS-1" value="START" style="ellipse;whiteSpace=wrap;html=1;" vertex="1" parent="WIyWlLk6GJQsqaUBKTNV-1">
          <mxGeometry x="354" y="50" width="120" height="80" as="geometry" />
        </mxCell>
        <mxCell id="eb4Wm__o-diYVPhlH8vS-2" value="STOP" style="ellipse;whiteSpace=wrap;html=1;" vertex="1" parent="WIyWlLk6GJQsqaUBKTNV-1">
          <mxGeometry x="-90" y="120" width="120" height="80" as="geometry" />
        </mxCell>
        <mxCell id="eb4Wm__o-diYVPhlH8vS-4" style="edgeStyle=orthogonalEdgeStyle;rounded=0;orthogonalLoop=1;jettySize=auto;html=1;exitX=0.5;exitY=1;exitDx=0;exitDy=0;" edge="1" parent="WIyWlLk6GJQsqaUBKTNV-1" source="eb4Wm__o-diYVPhlH8vS-3">
          <mxGeometry relative="1" as="geometry">
            <mxPoint x="414" y="290" as="targetPoint" />
          </mxGeometry>
        </mxCell>
        <mxCell id="eb4Wm__o-diYVPhlH8vS-3" value="&lt;div&gt;pobierz x &lt;br&gt;&lt;/div&gt;&lt;div&gt;pobierz y&lt;br&gt;&lt;/div&gt;&lt;div&gt;pobierz c&lt;br&gt;&lt;/div&gt;" style="rounded=0;whiteSpace=wrap;html=1;" vertex="1" parent="WIyWlLk6GJQsqaUBKTNV-1">
          <mxGeometry x="354" y="200" width="120" height="60" as="geometry" />
        </mxCell>
        <mxCell id="eb4Wm__o-diYVPhlH8vS-9" style="edgeStyle=orthogonalEdgeStyle;rounded=0;orthogonalLoop=1;jettySize=auto;html=1;exitX=0;exitY=0.5;exitDx=0;exitDy=0;entryX=1;entryY=0.5;entryDx=0;entryDy=0;" edge="1" parent="WIyWlLk6GJQsqaUBKTNV-1" source="eb4Wm__o-diYVPhlH8vS-6">
          <mxGeometry relative="1" as="geometry">
            <mxPoint x="240" y="441" as="targetPoint" />
          </mxGeometry>
        </mxCell>
        <mxCell id="eb4Wm__o-diYVPhlH8vS-10" value="TAK" style="edgeLabel;html=1;align=center;verticalAlign=middle;resizable=0;points=[];" vertex="1" connectable="0" parent="eb4Wm__o-diYVPhlH8vS-9">
          <mxGeometry x="-0.7292" relative="1" as="geometry">
            <mxPoint as="offset" />
          </mxGeometry>
        </mxCell>
        <mxCell id="eb4Wm__o-diYVPhlH8vS-11" style="edgeStyle=orthogonalEdgeStyle;rounded=0;orthogonalLoop=1;jettySize=auto;html=1;exitX=1;exitY=0.5;exitDx=0;exitDy=0;" edge="1" parent="WIyWlLk6GJQsqaUBKTNV-1" source="eb4Wm__o-diYVPhlH8vS-6">
          <mxGeometry relative="1" as="geometry">
            <mxPoint x="570" y="451" as="targetPoint" />
          </mxGeometry>
        </mxCell>
        <mxCell id="eb4Wm__o-diYVPhlH8vS-12" value="&lt;div&gt;NIE&lt;/div&gt;" style="edgeLabel;html=1;align=center;verticalAlign=middle;resizable=0;points=[];" vertex="1" connectable="0" parent="eb4Wm__o-diYVPhlH8vS-11">
          <mxGeometry x="-0.7551" relative="1" as="geometry">
            <mxPoint as="offset" />
          </mxGeometry>
        </mxCell>
        <mxCell id="eb4Wm__o-diYVPhlH8vS-6" value="x &amp;gt; y" style="rhombus;whiteSpace=wrap;html=1;" vertex="1" parent="WIyWlLk6GJQsqaUBKTNV-1">
          <mxGeometry x="356" y="396" width="116" height="110" as="geometry" />
        </mxCell>
        <mxCell id="eb4Wm__o-diYVPhlH8vS-15" style="edgeStyle=orthogonalEdgeStyle;rounded=0;orthogonalLoop=1;jettySize=auto;html=1;exitX=0.5;exitY=1;exitDx=0;exitDy=0;" edge="1" parent="WIyWlLk6GJQsqaUBKTNV-1" source="eb4Wm__o-diYVPhlH8vS-13">
          <mxGeometry relative="1" as="geometry">
            <mxPoint x="300" y="451" as="targetPoint" />
            <Array as="points">
              <mxPoint x="630" y="516" />
              <mxPoint x="300" y="516" />
            </Array>
          </mxGeometry>
        </mxCell>
        <mxCell id="eb4Wm__o-diYVPhlH8vS-13" value="&lt;div&gt;c = x&lt;/div&gt;&lt;div&gt;x = y&lt;/div&gt;&lt;div&gt;y = c&lt;br&gt;&lt;/div&gt;" style="rounded=0;whiteSpace=wrap;html=1;" vertex="1" parent="WIyWlLk6GJQsqaUBKTNV-1">
          <mxGeometry x="570" y="421" width="120" height="60" as="geometry" />
        </mxCell>
        <mxCell id="eb4Wm__o-diYVPhlH8vS-37" style="edgeStyle=orthogonalEdgeStyle;rounded=0;orthogonalLoop=1;jettySize=auto;html=1;exitX=0.5;exitY=0;exitDx=0;exitDy=0;" edge="1" parent="WIyWlLk6GJQsqaUBKTNV-1" source="eb4Wm__o-diYVPhlH8vS-22" target="eb4Wm__o-diYVPhlH8vS-38">
          <mxGeometry relative="1" as="geometry">
            <mxPoint x="180" y="360" as="targetPoint" />
          </mxGeometry>
        </mxCell>
        <mxCell id="eb4Wm__o-diYVPhlH8vS-22" value="z = x mod y" style="rounded=0;whiteSpace=wrap;html=1;" vertex="1" parent="WIyWlLk6GJQsqaUBKTNV-1">
          <mxGeometry x="120" y="410" width="120" height="60" as="geometry" />
        </mxCell>
        <mxCell id="eb4Wm__o-diYVPhlH8vS-24" style="edgeStyle=orthogonalEdgeStyle;rounded=0;orthogonalLoop=1;jettySize=auto;html=1;exitX=0.5;exitY=1;exitDx=0;exitDy=0;entryX=0.5;entryY=0;entryDx=0;entryDy=0;" edge="1" parent="WIyWlLk6GJQsqaUBKTNV-1" source="eb4Wm__o-diYVPhlH8vS-23" target="eb4Wm__o-diYVPhlH8vS-6">
          <mxGeometry relative="1" as="geometry" />
        </mxCell>
        <mxCell id="eb4Wm__o-diYVPhlH8vS-26" style="edgeStyle=orthogonalEdgeStyle;rounded=0;orthogonalLoop=1;jettySize=auto;html=1;exitX=1;exitY=0.5;exitDx=0;exitDy=0;" edge="1" parent="WIyWlLk6GJQsqaUBKTNV-1" source="eb4Wm__o-diYVPhlH8vS-23" target="eb4Wm__o-diYVPhlH8vS-31">
          <mxGeometry relative="1" as="geometry">
            <mxPoint x="570" y="330" as="targetPoint" />
          </mxGeometry>
        </mxCell>
        <mxCell id="eb4Wm__o-diYVPhlH8vS-27" value="TAK" style="edgeLabel;html=1;align=center;verticalAlign=middle;resizable=0;points=[];" vertex="1" connectable="0" parent="eb4Wm__o-diYVPhlH8vS-26">
          <mxGeometry x="-0.7069" y="1" relative="1" as="geometry">
            <mxPoint as="offset" />
          </mxGeometry>
        </mxCell>
        <mxCell id="eb4Wm__o-diYVPhlH8vS-23" value="x = y" style="rhombus;whiteSpace=wrap;html=1;" vertex="1" parent="WIyWlLk6GJQsqaUBKTNV-1">
          <mxGeometry x="374" y="290" width="80" height="80" as="geometry" />
        </mxCell>
        <mxCell id="eb4Wm__o-diYVPhlH8vS-25" value="NIE" style="text;html=1;align=center;verticalAlign=middle;resizable=0;points=[];autosize=1;strokeColor=none;fillColor=none;" vertex="1" parent="WIyWlLk6GJQsqaUBKTNV-1">
          <mxGeometry x="400" y="355" width="40" height="30" as="geometry" />
        </mxCell>
        <mxCell id="eb4Wm__o-diYVPhlH8vS-31" value="wyswietl x" style="rounded=0;whiteSpace=wrap;html=1;" vertex="1" parent="WIyWlLk6GJQsqaUBKTNV-1">
          <mxGeometry x="520" y="300" width="120" height="60" as="geometry" />
        </mxCell>
        <mxCell id="eb4Wm__o-diYVPhlH8vS-39" style="edgeStyle=orthogonalEdgeStyle;rounded=0;orthogonalLoop=1;jettySize=auto;html=1;exitX=0;exitY=0.5;exitDx=0;exitDy=0;entryX=0.5;entryY=0;entryDx=0;entryDy=0;" edge="1" parent="WIyWlLk6GJQsqaUBKTNV-1" source="eb4Wm__o-diYVPhlH8vS-38" target="eb4Wm__o-diYVPhlH8vS-46">
          <mxGeometry relative="1" as="geometry">
            <mxPoint x="70" y="330" as="targetPoint" />
          </mxGeometry>
        </mxCell>
        <mxCell id="eb4Wm__o-diYVPhlH8vS-42" style="edgeStyle=orthogonalEdgeStyle;rounded=0;orthogonalLoop=1;jettySize=auto;html=1;exitX=0.5;exitY=0;exitDx=0;exitDy=0;" edge="1" parent="WIyWlLk6GJQsqaUBKTNV-1" source="eb4Wm__o-diYVPhlH8vS-38">
          <mxGeometry relative="1" as="geometry">
            <mxPoint x="180" y="190" as="targetPoint" />
          </mxGeometry>
        </mxCell>
        <mxCell id="eb4Wm__o-diYVPhlH8vS-43" value="NIE" style="edgeLabel;html=1;align=center;verticalAlign=middle;resizable=0;points=[];" vertex="1" connectable="0" parent="eb4Wm__o-diYVPhlH8vS-42">
          <mxGeometry x="-0.68" relative="1" as="geometry">
            <mxPoint as="offset" />
          </mxGeometry>
        </mxCell>
        <mxCell id="eb4Wm__o-diYVPhlH8vS-38" value="z &amp;gt; 0" style="rhombus;whiteSpace=wrap;html=1;" vertex="1" parent="WIyWlLk6GJQsqaUBKTNV-1">
          <mxGeometry x="140" y="290" width="80" height="80" as="geometry" />
        </mxCell>
        <mxCell id="eb4Wm__o-diYVPhlH8vS-41" value="TAK" style="text;html=1;align=center;verticalAlign=middle;resizable=0;points=[];autosize=1;strokeColor=none;fillColor=none;" vertex="1" parent="WIyWlLk6GJQsqaUBKTNV-1">
          <mxGeometry x="110" y="305" width="40" height="30" as="geometry" />
        </mxCell>
        <mxCell id="eb4Wm__o-diYVPhlH8vS-45" style="edgeStyle=orthogonalEdgeStyle;rounded=0;orthogonalLoop=1;jettySize=auto;html=1;exitX=0;exitY=0.5;exitDx=0;exitDy=0;entryX=1;entryY=0.5;entryDx=0;entryDy=0;" edge="1" parent="WIyWlLk6GJQsqaUBKTNV-1" source="eb4Wm__o-diYVPhlH8vS-44" target="eb4Wm__o-diYVPhlH8vS-2">
          <mxGeometry relative="1" as="geometry" />
        </mxCell>
        <mxCell id="eb4Wm__o-diYVPhlH8vS-44" value="wyswietl y" style="rounded=0;whiteSpace=wrap;html=1;" vertex="1" parent="WIyWlLk6GJQsqaUBKTNV-1">
          <mxGeometry x="120" y="130" width="120" height="60" as="geometry" />
        </mxCell>
        <mxCell id="eb4Wm__o-diYVPhlH8vS-47" style="edgeStyle=orthogonalEdgeStyle;rounded=0;orthogonalLoop=1;jettySize=auto;html=1;exitX=0.5;exitY=1;exitDx=0;exitDy=0;" edge="1" parent="WIyWlLk6GJQsqaUBKTNV-1" source="eb4Wm__o-diYVPhlH8vS-46">
          <mxGeometry relative="1" as="geometry">
            <mxPoint x="280" y="440" as="targetPoint" />
            <Array as="points">
              <mxPoint x="10" y="490" />
              <mxPoint x="270" y="490" />
              <mxPoint x="270" y="540" />
              <mxPoint x="280" y="540" />
            </Array>
          </mxGeometry>
        </mxCell>
        <mxCell id="eb4Wm__o-diYVPhlH8vS-46" value="&lt;div&gt;x = y&lt;/div&gt;&lt;div&gt;y = z&lt;br&gt;&lt;/div&gt;" style="rounded=0;whiteSpace=wrap;html=1;" vertex="1" parent="WIyWlLk6GJQsqaUBKTNV-1">
          <mxGeometry x="-50" y="410" width="120" height="60" as="geometry" />
        </mxCell>
      </root>
    </mxGraphModel>
  </diagram>
</mxfile>
